#!OML:ASF H:\LiuWeirdWalks\Patient Classification 1\Patient 1\Session 1\male.ASF
:FULLY-SPECIFIED
:DEGREES
122
root 0.616569 18.3118 5.70358 2.03991 3.93773 -1.23866
lowerback 2.13621 -0.437337 -0.903427
upperback -0.307019 -0.582038 1.68744
thorax -1.48568 -0.276215 2.25731
lowerneck -23.4006 0.605113 4.17265
upperneck 17.1002 0.519551 -4.91157
head 9.24585 -0.0526974 -2.3151
rclavicle -3.06874e-015 -1.21259e-014
rhumerus -21.3537 -30.6463 -0.231993
rradius 21.797
rwrist 6.71057
rhand -11.5375 -10.1246
rfingers 7.12502
rthumb 14.5027 -39.5978
lclavicle -3.06874e-015 -1.21259e-014
lhumerus -22.4056 26.627 6.66842
lradius 21.6842
lwrist -9.26403
lhand -14.1382 4.87839
lfingers 7.12502
lthumb 11.9959 34.5146
rfemur 0.106768 0.444482 14.4444
rtibia 14.7048
rfoot -5.72024 -25.0004
rtoes -5.14622
lfemur 0 0 0
ltibia 0
lfoot 0 0
ltoes 0
123
root 0.616874 18.3118 5.70412 2.04328 3.9343 -1.2335
lowerback 2.1361 -0.433935 -0.906865
upperback -0.295244 -0.57777 1.68268
thorax -1.47375 -0.274263 2.25412
lowerneck -23.4474 0.604688 4.18136
upperneck 17.0828 0.51818 -4.93124
head 9.2479 -0.0555696 -2.32371
rclavicle 1.67228e-014 9.14409e-015
rhumerus -21.3437 -30.7285 -0.21406
rradius 21.7806
rwrist 6.74454
rhand -11.5438 -10.1632
rfingers 7.12502
rthumb 14.4966 -39.6367
lclavicle 1.67228e-014 9.14409e-015
lhumerus -22.3952 26.5718 6.69451
lradius 21.7093
lwrist -9.1733
lhand -14.1476 4.92742
lfingers 7.12502
lthumb 11.9868 34.5642
rfemur 0.101443 0.440833 14.4365
rtibia 14.7112
rfoot -5.72546 -24.9964
rtoes -5.1478
lfemur 0 0 0
ltibia 0
lfoot 0 0
ltoes 0
124
root 0.617203 18.3118 5.70457 2.04677 3.93085 -1.2283
lowerback 2.14024 -0.430823 -0.91129
upperback -0.286036 -0.573887 1.67845
thorax -1.4668 -0.272431 2.2521
lowerneck -23.4716 0.606978 4.19873
upperneck 17.0527 0.519556 -4.95772
head 9.24175 -0.0571369 -2.33535
rclavicle -1.03492e-014 -2.18663e-015
rhumerus -21.3339 -30.7738 -0.203825
rradius 21.7755
rwrist 6.72486
rhand -11.5604 -10.2298
rfingers 7.12502
rthumb 14.4806 -39.7045
lclavicle -1.03492e-014 -2.18663e-015
lhumerus -22.3918 26.5198 6.71602
lradius 21.7355
lwrist -9.09129
lhand -14.1439 4.96296
lfingers 7.12502
lthumb 11.9903 34.5995
rfemur 0.095682 0.435445 14.4283
rtibia 14.7172
rfoot -5.72516 -24.9909
rtoes -5.15287
lfemur 0 0 0
ltibia 0
lfoot 0 0
ltoes 0
125
root 0.617483 18.3119 5.7048 2.05135 3.92767 -1.22631
lowerback 2.14911 -0.43062 -0.915216
upperback -0.283773 -0.573782 1.67622
thorax -1.46945 -0.272349 2.25209
lowerneck -23.4665 0.609261 4.21575
upperneck 17.0124 0.52173 -4.98387
head 9.22706 -0.058008 -2.34631
rclavicle -9.44227e-016 -1.21259e-014
rhumerus -21.3198 -30.7754 -0.204539
rradius 21.7809
rwrist 6.66859
rhand -11.5842 -10.2665
rfingers 7.12502
rthumb 14.4577 -39.7428
lclavicle -9.44227e-016 -1.21259e-014
lhumerus -22.4049 26.4569 6.7266
lradius 21.7655
lwrist -9.01484
lhand -14.1298 4.99704
lfingers 7.12502
lthumb 12.004 34.6328
rfemur 0.0879615 0.431887 14.4245
rtibia 14.7223
rfoot -5.72333 -24.9876
rtoes -5.15812
lfemur 0 0 0
ltibia 0
lfoot 0 0
ltoes 0
126
root 0.617707 18.312 5.70491 2.05589 3.92366 -1.22758
lowerback 2.16086 -0.431515 -0.917909
upperback -0.286772 -0.575037 1.67608
thorax -1.47904 -0.272848 2.25365
lowerneck -23.4392 0.610371 4.22677
upperneck 16.9755 0.523926 -5.00412
head 9.2097 -0.0583355 -2.35408
rclavicle -1.49958e-014 -8.74653e-015
rhumerus -21.305 -30.7038 -0.219317
rradius 21.8054
rwrist 6.54634
rhand -11.6207 -10.2793
rfingers 7.12502
rthumb 14.4225 -39.7581
lclavicle -1.49958e-014 -8.74653e-015
lhumerus -22.4251 26.4317 6.72284
lradius 21.7838
lwrist -8.987
lhand -14.1142 5.00717
lfingers 7.12502
lthumb 12.019 34.6421
rfemur 0.0797582 0.434179 14.4254
rtibia 14.7269
rfoot -5.7205 -24.989
rtoes -5.16502
lfemur 0 0 0
ltibia 0
lfoot 0 0
ltoes 0
127
root 0.617849 18.3121 5.70485 2.06076 3.91978 -1.23034
lowerback 2.17409 -0.433718 -0.920479
upperback -0.291057 -0.578001 1.67737
thorax -1.49068 -0.27417 2.25669
lowerneck -23.3976 0.614853 4.23945
upperneck 16.9295 0.530898 -5.02643
head 9.18695 -0.0564075 -2.3619
rclavicle -5.65294e-015 3.22031e-014
rhumerus -21.2907 -30.6553 -0.225498
rradius 21.8253
rwrist 6.49871
rhand -11.6336 -10.2312
rfingers 7.12502
rthumb 14.41 -39.711
lclavicle -5.65294e-015 3.22031e-014
lhumerus -22.4483 26.4538 6.70508
lradius 21.7861
lwrist -9.0122
lhand -14.1002 4.99992
lfingers 7.12502
lthumb 12.0325 34.634
rfemur 0.0704214 0.443858 14.4297
rtibia 14.7315
rfoot -5.71846 -24.9977
rtoes -5.1677
lfemur 0 0 0
ltibia 0
lfoot 0 0
ltoes 0
128
root 0.618046 18.3122 5.70474 2.06661 3.91731 -1.2319
lowerback 2.18611 -0.437284 -0.924018
upperback -0.293636 -0.582838 1.67784
thorax -1.49981 -0.276457 2.25946
lowerneck -23.3634 0.619462 4.24373
upperneck 16.8884 0.538172 -5.03716
head 9.16716 -0.0536205 -2.36438
rclavicle 8.62228e-015 -1.68967e-014
rhumerus -21.2757 -30.6212 -0.231123
rradius 21.8434
rwrist 6.49427
rhand -11.6403 -10.1617
rfingers 7.12502
rthumb 14.4036 -39.6419
lclavicle 8.62228e-015 -1.68967e-014
lhumerus -22.4698 26.5208 6.67561
lradius 21.7743
lwrist -9.08108
lhand -14.0947 4.96507
lfingers 7.12502
lthumb 12.0378 34.5989
rfemur 0.0603272 0.456557 14.433
rtibia 14.7364
rfoot -5.71721 -25.0095
rtoes -5.16721
lfemur 0 0 0
ltibia 0
lfoot 0 0
ltoes 0
129
root 0.618328 18.3122 5.70469 2.07211 3.91677 -1.22934
lowerback 2.19611 -0.441996 -0.931402
upperback -0.289483 -0.589397 1.67644
thorax -1.5008 -0.279702 2.26248
lowerneck -23.3558 0.625951 4.24506
upperneck 16.8616 0.54691 -5.04091
head 9.157 -0.0498202 -2.36417
rclavicle 2.59662e-015 -6.75868e-015
rhumerus -21.2609 -30.6194 -0.233475
rradius 21.8577
rwrist 6.54399
rhand -11.6204 -10.0655
rfingers 7.12502
rthumb 14.4228 -39.5444
lclavicle 2.59662e-015 -6.75868e-015
lhumerus -22.4909 26.605 6.64121
lradius 21.7574
lwrist -9.16316
lhand -14.0948 4.92508
lfingers 7.12502
lthumb 12.0377 34.5589
rfemur 0.050833 0.466373 14.4313
rtibia 14.742
rfoot -5.71531 -25.0206
rtoes -5.16804
lfemur 0 0 0
ltibia 0
lfoot 0 0
ltoes 0
130
root 0.618722 18.3122 5.70471 2.07833 3.91809 -1.22533
lowerback 2.20116 -0.446341 -0.937755
upperback -0.280007 -0.595516 1.67263
thorax -1.49361 -0.282858 2.26232
lowerneck -23.3711 0.632795 4.24196
upperneck 16.8528 0.554987 -5.0341
head 9.15698 -0.0456359 -2.36011
rclavicle 2.1096e-014 1.39149e-014
rhumerus -21.2481 -30.6492 -0.231778
rradius 21.8648
rwrist 6.63399
rhand -11.5909 -10.007
rfingers 7.12502
rthumb 14.4512 -39.4838
lclavicle 2.1096e-014 1.39149e-014
lhumerus -22.5001 26.6802 6.61584
lradius 21.7441
lwrist -9.22134
lhand -14.1007 4.90873
lfingers 7.12502
lthumb 12.032 34.5429
rfemur 0.0415575 0.473791 14.4273
rtibia 14.7471
rfoot -5.71426 -25.0305
rtoes -5.17067
lfemur 0 0 0
ltibia 0
lfoot 0 0
ltoes 0
131
root 0.619096 18.3123 5.70473 2.08506 3.91895 -1.22245
lowerback 2.20222 -0.449986 -0.943415
upperback -0.267079 -0.600722 1.66776
thorax -1.48069 -0.285645 2.26059
lowerneck -23.4089 0.642843 4.24175
upperneck 16.8594 0.565311 -5.02366
head 9.16629 -0.0400281 -2.35535
rclavicle -1.24489e-014 -2.52457e-014
rhumerus -21.2363 -30.6973 -0.23011
rradius 21.867
rwrist 6.73184
rhand -11.5545 -10.0054
rfingers 7.12502
rthumb 14.4863 -39.4797
lclavicle -1.24489e-014 -2.52457e-014
lhumerus -22.5069 26.7259 6.59764
lradius 21.7387
lwrist -9.24605
lhand -14.1076 4.8968
lfingers 7.12502
lthumb 12.0254 34.5313
rfemur 0.0315753 0.483067 14.425
rtibia 14.7511
rfoot -5.71079 -25.0423
rtoes -5.17921
lfemur 0 0 0
ltibia 0
lfoot 0 0
ltoes 0
132
root 0.619453 18.3124 5.70476 2.09275 3.92026 -1.22427
lowerback 2.20037 -0.453149 -0.944289
upperback -0.253953 -0.60514 1.66365
thorax -1.46602 -0.288092 2.25687
lowerneck -23.4606 0.653096 4.24193
upperneck 16.8856 0.575086 -5.00971
head 9.18479 -0.0343832 -2.34991
rclavicle -1.09332e-015 -4.77083e-015
rhumerus -21.2241 -30.7681 -0.226022
rradius 21.8604
rwrist 6.82466
rhand -11.5217 -10.0551
rfingers 7.12502
rthumb 14.5179 -39.5271
lclavicle -1.09332e-015 -4.77083e-015
lhumerus -22.5109 26.7378 6.58876
lradius 21.7426
lwrist -9.23435
lhand -14.1118 4.89614
lfingers 7.12502
lthumb 12.0213 34.5309
rfemur 0.0216805 0.494792 14.4284
rtibia 14.7522
rfoot -5.70681 -25.057
rtoes -5.18818
lfemur 0 0 0
ltibia 0
lfoot 0 0
ltoes 0
133
root 0.6197 18.3125 5.70478 2.10218 3.92009 -1.23008
lowerback 2.19733 -0.456579 -0.942505
upperback -0.244659 -0.609792 1.66041
thorax -1.45462 -0.290615 2.25259
lowerneck -23.5053 0.663253 4.246
upperneck 16.9143 0.583997 -4.99695
head 9.20295 -0.0289353 -2.34563
rclavicle 2.82026e-015 -2.10712e-014
rhumerus -21.2096 -30.8381 -0.225375
rradius 21.8494
rwrist 6.89811
rhand -11.4994 -10.1177
rfingers 7.12502
rthumb 14.5394 -39.5882
lclavicle 2.82026e-015 -2.10712e-014
lhumerus -22.5191 26.7132 6.58308
lradius 21.7553
lwrist -9.19444
lhand -14.1072 4.89679
lfingers 7.12502
lthumb 12.0257 34.5313
rfemur 0.00997034 0.51309 14.4375
rtibia 14.7514
rfoot -5.7004 -25.0767
rtoes -5.19612
lfemur 0 0 0
ltibia 0
lfoot 0 0
ltoes 0
